<mxfile host="65bd71144e">
    <diagram id="KunhUqbdcFeUwQkzYWMr" name="第 1 页">
        <mxGraphModel dx="2016" dy="820" grid="1" gridSize="10" guides="1" tooltips="1" connect="1" arrows="1" fold="1" page="1" pageScale="1" pageWidth="827" pageHeight="1169" background="#ffffff" math="0" shadow="0">
            <root>
                <mxCell id="0"/>
                <mxCell id="1" parent="0"/>
                <mxCell id="2" value="patch(n1,n2,container,anchor)" style="rounded=0;whiteSpace=wrap;html=1;fillColor=#f5f5f5;fontColor=#333333;strokeColor=#666666;" vertex="1" parent="1">
                    <mxGeometry x="317.5" y="70" width="165" height="60" as="geometry"/>
                </mxCell>
                <mxCell id="3" value="" style="endArrow=classic;html=1;exitX=0.5;exitY=1;exitDx=0;exitDy=0;fillColor=#f5f5f5;strokeColor=#666666;" edge="1" parent="1" source="2" target="5">
                    <mxGeometry width="50" height="50" relative="1" as="geometry">
                        <mxPoint x="390" y="420" as="sourcePoint"/>
                        <mxPoint x="400" y="200" as="targetPoint"/>
                    </mxGeometry>
                </mxCell>
                <mxCell id="5" value="n1===n2?" style="rhombus;whiteSpace=wrap;html=1;fillColor=#f5f5f5;fontColor=#333333;strokeColor=#666666;" vertex="1" parent="1">
                    <mxGeometry x="315" y="160" width="170" height="60" as="geometry"/>
                </mxCell>
                <mxCell id="6" value="" style="endArrow=classic;html=1;exitX=1;exitY=0.5;exitDx=0;exitDy=0;fillColor=#f5f5f5;strokeColor=#666666;" edge="1" parent="1" source="5" target="7">
                    <mxGeometry width="50" height="50" relative="1" as="geometry">
                        <mxPoint x="390" y="420" as="sourcePoint"/>
                        <mxPoint x="570" y="190" as="targetPoint"/>
                    </mxGeometry>
                </mxCell>
                <mxCell id="7" value="return" style="rounded=0;whiteSpace=wrap;html=1;fillColor=#f5f5f5;fontColor=#333333;strokeColor=#666666;" vertex="1" parent="1">
                    <mxGeometry x="590" y="160" width="120" height="60" as="geometry"/>
                </mxCell>
                <mxCell id="8" value="&lt;font color=&quot;#000000&quot;&gt;yes&lt;/font&gt;" style="text;html=1;align=center;verticalAlign=middle;resizable=0;points=[];autosize=1;strokeColor=none;fillColor=none;" vertex="1" parent="1">
                    <mxGeometry x="510" y="160" width="40" height="30" as="geometry"/>
                </mxCell>
                <mxCell id="9" value="" style="endArrow=classic;html=1;fontColor=#000000;exitX=0.5;exitY=1;exitDx=0;exitDy=0;fillColor=#f5f5f5;strokeColor=#666666;" edge="1" parent="1" source="5" target="11">
                    <mxGeometry width="50" height="50" relative="1" as="geometry">
                        <mxPoint x="390" y="420" as="sourcePoint"/>
                        <mxPoint x="400" y="290" as="targetPoint"/>
                    </mxGeometry>
                </mxCell>
                <mxCell id="11" value="isSomeVnodeType(n1,n2)?" style="rhombus;whiteSpace=wrap;html=1;fontColor=#333333;fillColor=#f5f5f5;strokeColor=#666666;" vertex="1" parent="1">
                    <mxGeometry x="310" y="260" width="180" height="60" as="geometry"/>
                </mxCell>
                <mxCell id="12" value="no" style="text;html=1;align=center;verticalAlign=middle;resizable=0;points=[];autosize=1;strokeColor=none;fillColor=none;fontColor=#000000;" vertex="1" parent="1">
                    <mxGeometry x="394" y="220" width="40" height="30" as="geometry"/>
                </mxCell>
                <mxCell id="14" value="" style="curved=1;endArrow=classic;html=1;fontColor=#000000;exitX=1;exitY=0.5;exitDx=0;exitDy=0;fillColor=#f5f5f5;strokeColor=#666666;entryX=0.5;entryY=0;entryDx=0;entryDy=0;" edge="1" parent="1" source="11" target="19">
                    <mxGeometry width="50" height="50" relative="1" as="geometry">
                        <mxPoint x="390" y="420" as="sourcePoint"/>
                        <mxPoint x="560" y="410" as="targetPoint"/>
                        <Array as="points">
                            <mxPoint x="580" y="300"/>
                        </Array>
                    </mxGeometry>
                </mxCell>
                <mxCell id="16" value="no" style="text;html=1;align=center;verticalAlign=middle;resizable=0;points=[];autosize=1;strokeColor=none;fillColor=none;fontColor=#000000;" vertex="1" parent="1">
                    <mxGeometry x="560" y="310" width="40" height="30" as="geometry"/>
                </mxCell>
                <mxCell id="18" value="yes" style="text;html=1;align=center;verticalAlign=middle;resizable=0;points=[];autosize=1;strokeColor=none;fillColor=none;fontColor=#000000;" vertex="1" parent="1">
                    <mxGeometry x="370" y="400" width="40" height="30" as="geometry"/>
                </mxCell>
                <mxCell id="19" value="unmount(n1)&lt;br&gt;n1 = null&lt;br&gt;anchor = n1的下一个兄弟" style="rounded=0;whiteSpace=wrap;html=1;fontColor=#333333;fillColor=#f5f5f5;strokeColor=#666666;" vertex="1" parent="1">
                    <mxGeometry x="510" y="370" width="140" height="60" as="geometry"/>
                </mxCell>
                <mxCell id="20" value="{type,ref,shapeFlag} = n2" style="rounded=0;whiteSpace=wrap;html=1;fontColor=#333333;fillColor=#f5f5f5;strokeColor=#666666;" vertex="1" parent="1">
                    <mxGeometry x="330" y="555" width="140" height="60" as="geometry"/>
                </mxCell>
                <mxCell id="21" value="" style="curved=1;endArrow=classic;html=1;fontColor=#000000;entryX=0.5;entryY=0;entryDx=0;entryDy=0;exitX=0.5;exitY=1;exitDx=0;exitDy=0;fillColor=#f5f5f5;strokeColor=#666666;" edge="1" parent="1" source="19" target="20">
                    <mxGeometry width="50" height="50" relative="1" as="geometry">
                        <mxPoint x="390" y="400" as="sourcePoint"/>
                        <mxPoint x="440" y="350" as="targetPoint"/>
                        <Array as="points">
                            <mxPoint x="580" y="460"/>
                            <mxPoint x="550" y="490"/>
                        </Array>
                    </mxGeometry>
                </mxCell>
                <mxCell id="23" value="" style="endArrow=classic;html=1;fontColor=#000000;exitX=0.5;exitY=1;exitDx=0;exitDy=0;entryX=0.5;entryY=0;entryDx=0;entryDy=0;fillColor=#f5f5f5;strokeColor=#666666;" edge="1" parent="1" source="11" target="20">
                    <mxGeometry width="50" height="50" relative="1" as="geometry">
                        <mxPoint x="390" y="400" as="sourcePoint"/>
                        <mxPoint x="440" y="350" as="targetPoint"/>
                    </mxGeometry>
                </mxCell>
                <mxCell id="24" value="" style="endArrow=classic;html=1;fontColor=#000000;exitX=0.5;exitY=1;exitDx=0;exitDy=0;fillColor=#f5f5f5;strokeColor=#666666;" edge="1" parent="1" source="20" target="25">
                    <mxGeometry width="50" height="50" relative="1" as="geometry">
                        <mxPoint x="390" y="690" as="sourcePoint"/>
                        <mxPoint x="400" y="670" as="targetPoint"/>
                    </mxGeometry>
                </mxCell>
                <mxCell id="25" value="switch(type)" style="rhombus;whiteSpace=wrap;html=1;fontColor=#333333;fillColor=#f5f5f5;strokeColor=#666666;" vertex="1" parent="1">
                    <mxGeometry x="310" y="670" width="180" height="60" as="geometry"/>
                </mxCell>
                <mxCell id="26" value="" style="curved=1;endArrow=classic;html=1;fontColor=#000000;exitX=0.5;exitY=1;exitDx=0;exitDy=0;fillColor=#f5f5f5;strokeColor=#666666;entryX=0.5;entryY=0;entryDx=0;entryDy=0;" edge="1" parent="1" source="25" target="27">
                    <mxGeometry width="50" height="50" relative="1" as="geometry">
                        <mxPoint x="390" y="690" as="sourcePoint"/>
                        <mxPoint x="680" y="810" as="targetPoint"/>
                        <Array as="points">
                            <mxPoint x="500" y="730"/>
                            <mxPoint x="690" y="770"/>
                        </Array>
                    </mxGeometry>
                </mxCell>
                <mxCell id="27" value="processText&lt;br&gt;(n1,n2,container,anchor)" style="rounded=0;whiteSpace=wrap;html=1;fontColor=#333333;fillColor=#f5f5f5;strokeColor=#666666;" vertex="1" parent="1">
                    <mxGeometry x="770" y="810" width="170" height="60" as="geometry"/>
                </mxCell>
                <mxCell id="28" value="" style="curved=1;endArrow=classic;html=1;fontColor=#000000;exitX=0.5;exitY=1;exitDx=0;exitDy=0;fillColor=#f5f5f5;strokeColor=#666666;entryX=0.5;entryY=0;entryDx=0;entryDy=0;" edge="1" parent="1" source="25" target="29">
                    <mxGeometry width="50" height="50" relative="1" as="geometry">
                        <mxPoint x="410" y="740" as="sourcePoint"/>
                        <mxPoint x="560" y="820" as="targetPoint"/>
                        <Array as="points">
                            <mxPoint x="480" y="740"/>
                        </Array>
                    </mxGeometry>
                </mxCell>
                <mxCell id="29" value="processCommentNode&lt;br&gt;(n1,n2,container,anchor)" style="rounded=0;whiteSpace=wrap;html=1;fontColor=#333333;fillColor=#f5f5f5;strokeColor=#666666;" vertex="1" parent="1">
                    <mxGeometry x="570" y="810" width="140" height="60" as="geometry"/>
                </mxCell>
                <mxCell id="30" value="Text" style="text;html=1;align=center;verticalAlign=middle;resizable=0;points=[];autosize=1;strokeColor=none;fillColor=none;fontColor=#000000;" vertex="1" parent="1">
                    <mxGeometry x="590" y="730" width="50" height="30" as="geometry"/>
                </mxCell>
                <mxCell id="31" value="comment" style="text;html=1;align=center;verticalAlign=middle;resizable=0;points=[];autosize=1;strokeColor=none;fillColor=none;fontColor=#000000;" vertex="1" parent="1">
                    <mxGeometry x="570" y="760" width="70" height="30" as="geometry"/>
                </mxCell>
                <mxCell id="32" value="" style="curved=1;endArrow=classic;html=1;fontColor=#000000;exitX=0.5;exitY=1;exitDx=0;exitDy=0;fillColor=#f5f5f5;strokeColor=#666666;entryX=0.5;entryY=0;entryDx=0;entryDy=0;" edge="1" parent="1" source="25" target="35">
                    <mxGeometry width="50" height="50" relative="1" as="geometry">
                        <mxPoint x="410" y="740" as="sourcePoint"/>
                        <mxPoint x="400" y="810" as="targetPoint"/>
                        <Array as="points">
                            <mxPoint x="450" y="750"/>
                        </Array>
                    </mxGeometry>
                </mxCell>
                <mxCell id="34" value="static" style="text;html=1;align=center;verticalAlign=middle;resizable=0;points=[];autosize=1;strokeColor=none;fillColor=none;fontColor=#000000;" vertex="1" parent="1">
                    <mxGeometry x="425" y="755" width="50" height="30" as="geometry"/>
                </mxCell>
                <mxCell id="35" value="n1===null?" style="rhombus;whiteSpace=wrap;html=1;fontColor=#333333;fillColor=#f5f5f5;strokeColor=#666666;" vertex="1" parent="1">
                    <mxGeometry x="390" y="810" width="115" height="60" as="geometry"/>
                </mxCell>
                <mxCell id="36" value="" style="endArrow=classic;html=1;fontColor=#000000;exitX=0.5;exitY=1;exitDx=0;exitDy=0;fillColor=#f5f5f5;strokeColor=#666666;entryX=0.5;entryY=0;entryDx=0;entryDy=0;" edge="1" parent="1" source="35" target="38">
                    <mxGeometry width="50" height="50" relative="1" as="geometry">
                        <mxPoint x="390" y="810" as="sourcePoint"/>
                        <mxPoint x="448" y="930" as="targetPoint"/>
                    </mxGeometry>
                </mxCell>
                <mxCell id="37" value="yes" style="text;html=1;align=center;verticalAlign=middle;resizable=0;points=[];autosize=1;strokeColor=none;fillColor=none;fontColor=#000000;" vertex="1" parent="1">
                    <mxGeometry x="410" y="885" width="40" height="30" as="geometry"/>
                </mxCell>
                <mxCell id="41" value="" style="curved=1;endArrow=classic;html=1;fontColor=#000000;exitX=0.5;exitY=1;exitDx=0;exitDy=0;fillColor=#f5f5f5;strokeColor=#666666;entryX=0.5;entryY=0;entryDx=0;entryDy=0;" edge="1" parent="1" source="25" target="42">
                    <mxGeometry width="50" height="50" relative="1" as="geometry">
                        <mxPoint x="310" y="800" as="sourcePoint"/>
                        <mxPoint x="330" y="810" as="targetPoint"/>
                        <Array as="points">
                            <mxPoint x="330" y="770"/>
                        </Array>
                    </mxGeometry>
                </mxCell>
                <mxCell id="42" value="processFragment&lt;br&gt;(n1,n2,&lt;br&gt;container,&lt;br&gt;anchor)" style="rounded=0;whiteSpace=wrap;html=1;fontColor=#333333;fillColor=#f5f5f5;strokeColor=#666666;" vertex="1" parent="1">
                    <mxGeometry x="230" y="810" width="120" height="60" as="geometry"/>
                </mxCell>
                <mxCell id="43" value="" style="curved=1;endArrow=classic;html=1;fontColor=#000000;fillColor=#f5f5f5;strokeColor=#666666;exitX=0.5;exitY=1;exitDx=0;exitDy=0;entryX=0.5;entryY=0;entryDx=0;entryDy=0;" edge="1" parent="1" source="25" target="45">
                    <mxGeometry width="50" height="50" relative="1" as="geometry">
                        <mxPoint x="390" y="770" as="sourcePoint"/>
                        <mxPoint x="150" y="810" as="targetPoint"/>
                        <Array as="points">
                            <mxPoint x="300" y="730"/>
                            <mxPoint x="210" y="760"/>
                        </Array>
                    </mxGeometry>
                </mxCell>
                <mxCell id="45" value="shapeFlags" style="rhombus;whiteSpace=wrap;html=1;fontColor=#333333;fillColor=#f5f5f5;strokeColor=#666666;" vertex="1" parent="1">
                    <mxGeometry x="30" y="800" width="150" height="70" as="geometry"/>
                </mxCell>
                <mxCell id="46" value="default" style="text;html=1;align=center;verticalAlign=middle;resizable=0;points=[];autosize=1;strokeColor=none;fillColor=none;fontColor=#000000;" vertex="1" parent="1">
                    <mxGeometry x="200" y="725" width="60" height="30" as="geometry"/>
                </mxCell>
                <mxCell id="47" value="" style="curved=1;endArrow=classic;html=1;fontColor=#000000;exitX=0.5;exitY=1;exitDx=0;exitDy=0;fillColor=#f5f5f5;strokeColor=#666666;" edge="1" parent="1" source="45" target="48">
                    <mxGeometry width="50" height="50" relative="1" as="geometry">
                        <mxPoint x="190" y="1070" as="sourcePoint"/>
                        <mxPoint x="220" y="950" as="targetPoint"/>
                        <Array as="points">
                            <mxPoint x="200" y="890"/>
                        </Array>
                    </mxGeometry>
                </mxCell>
                <mxCell id="48" value="processElement(&lt;br&gt;n1,n2,&lt;br&gt;container,&lt;br&gt;anchor)" style="rounded=0;whiteSpace=wrap;html=1;fontColor=#333333;fillColor=#f5f5f5;strokeColor=#666666;" vertex="1" parent="1">
                    <mxGeometry x="170" y="930" width="120" height="60" as="geometry"/>
                </mxCell>
                <mxCell id="49" value="element" style="text;html=1;align=center;verticalAlign=middle;resizable=0;points=[];autosize=1;strokeColor=none;fillColor=none;fontColor=#000000;" vertex="1" parent="1">
                    <mxGeometry x="135" y="865" width="70" height="30" as="geometry"/>
                </mxCell>
                <mxCell id="51" value="" style="curved=1;endArrow=classic;html=1;fontColor=#000000;fillColor=#f5f5f5;strokeColor=#666666;exitX=0.5;exitY=1;exitDx=0;exitDy=0;" edge="1" parent="1" target="52" source="45">
                    <mxGeometry width="50" height="50" relative="1" as="geometry">
                        <mxPoint x="110" y="870" as="sourcePoint"/>
                        <mxPoint x="65" y="955" as="targetPoint"/>
                        <Array as="points">
                            <mxPoint x="45" y="895"/>
                        </Array>
                    </mxGeometry>
                </mxCell>
                <mxCell id="52" value="processComponent(&lt;br&gt;n1,n2,&lt;br&gt;container,&lt;br&gt;anchor)" style="rounded=0;whiteSpace=wrap;html=1;fontColor=#333333;fillColor=#f5f5f5;strokeColor=#666666;" vertex="1" parent="1">
                    <mxGeometry x="30" y="930" width="120" height="60" as="geometry"/>
                </mxCell>
                <mxCell id="53" value="component" style="text;html=1;align=center;verticalAlign=middle;resizable=0;points=[];autosize=1;strokeColor=none;fillColor=none;fontColor=#000000;" vertex="1" parent="1">
                    <mxGeometry x="50" y="880" width="80" height="30" as="geometry"/>
                </mxCell>
                <mxCell id="54" value="" style="curved=1;endArrow=classic;html=1;fontColor=#000000;fillColor=#f5f5f5;strokeColor=#666666;exitX=0.5;exitY=1;exitDx=0;exitDy=0;" edge="1" parent="1" target="55" source="45">
                    <mxGeometry width="50" height="50" relative="1" as="geometry">
                        <mxPoint x="-55" y="870" as="sourcePoint"/>
                        <mxPoint x="-95" y="955" as="targetPoint"/>
                        <Array as="points">
                            <mxPoint x="-50" y="890"/>
                        </Array>
                    </mxGeometry>
                </mxCell>
                <mxCell id="55" value="teleportImpl.process(&lt;br&gt;n1,n2,&lt;br&gt;container,&lt;br&gt;anchor)" style="rounded=0;whiteSpace=wrap;html=1;fontColor=#333333;fillColor=#f5f5f5;strokeColor=#666666;" vertex="1" parent="1">
                    <mxGeometry x="-100" y="930" width="120" height="60" as="geometry"/>
                </mxCell>
                <mxCell id="56" value="teleport" style="text;html=1;align=center;verticalAlign=middle;resizable=0;points=[];autosize=1;strokeColor=none;fillColor=none;fontColor=#000000;" vertex="1" parent="1">
                    <mxGeometry x="-30" y="880" width="60" height="30" as="geometry"/>
                </mxCell>
                <mxCell id="60" value="" style="curved=1;endArrow=classic;html=1;fontColor=#000000;fillColor=#f5f5f5;strokeColor=#666666;exitX=0.5;exitY=1;exitDx=0;exitDy=0;" edge="1" parent="1" target="61" source="45">
                    <mxGeometry width="50" height="50" relative="1" as="geometry">
                        <mxPoint x="-30" y="870" as="sourcePoint"/>
                        <mxPoint x="-230" y="955" as="targetPoint"/>
                        <Array as="points">
                            <mxPoint x="-185" y="890"/>
                        </Array>
                    </mxGeometry>
                </mxCell>
                <mxCell id="61" value="suspensetImpl.process(&lt;br&gt;n1,n2,&lt;br&gt;container,&lt;br&gt;anchor)" style="rounded=0;whiteSpace=wrap;html=1;fontColor=#333333;fillColor=#f5f5f5;strokeColor=#666666;" vertex="1" parent="1">
                    <mxGeometry x="-250" y="930" width="135" height="60" as="geometry"/>
                </mxCell>
                <mxCell id="62" value="suspense" style="text;html=1;align=center;verticalAlign=middle;resizable=0;points=[];autosize=1;strokeColor=none;fillColor=none;fontColor=#000000;" vertex="1" parent="1">
                    <mxGeometry x="-130" y="865" width="70" height="30" as="geometry"/>
                </mxCell>
                <mxCell id="64" value="isSomeVnodeType(n1,n2)" style="rounded=0;whiteSpace=wrap;html=1;fontColor=#333333;fillColor=#f5f5f5;strokeColor=#666666;" vertex="1" parent="1">
                    <mxGeometry x="80" y="260" width="150" height="60" as="geometry"/>
                </mxCell>
                <mxCell id="65" value="" style="endArrow=classic;html=1;fontColor=#000000;exitX=0.5;exitY=1;exitDx=0;exitDy=0;fillColor=#f5f5f5;strokeColor=#666666;" edge="1" parent="1" source="64" target="66">
                    <mxGeometry width="50" height="50" relative="1" as="geometry">
                        <mxPoint x="510" y="390" as="sourcePoint"/>
                        <mxPoint x="150" y="410" as="targetPoint"/>
                    </mxGeometry>
                </mxCell>
                <mxCell id="66" value="return n1.type===n2.type&lt;br&gt;&amp;amp;&amp;amp; n1.key===n2.key" style="rounded=0;whiteSpace=wrap;html=1;fontColor=#333333;fillColor=#f5f5f5;strokeColor=#666666;" vertex="1" parent="1">
                    <mxGeometry x="95" y="380" width="120" height="60" as="geometry"/>
                </mxCell>
                <mxCell id="68" value="ref &amp;amp;&amp;amp; parentcomponent" style="rhombus;whiteSpace=wrap;html=1;fontColor=#333333;fillColor=#f5f5f5;strokeColor=#666666;" vertex="1" parent="1">
                    <mxGeometry x="286" y="1070" width="184" height="70" as="geometry"/>
                </mxCell>
                <mxCell id="69" value="" style="endArrow=classic;html=1;fontColor=#000000;exitX=0.5;exitY=1;exitDx=0;exitDy=0;fillColor=#f5f5f5;strokeColor=#666666;entryX=0.5;entryY=0;entryDx=0;entryDy=0;" edge="1" parent="1" source="68" target="71">
                    <mxGeometry width="50" height="50" relative="1" as="geometry">
                        <mxPoint x="370" y="1080" as="sourcePoint"/>
                        <mxPoint x="380" y="1200" as="targetPoint"/>
                    </mxGeometry>
                </mxCell>
                <mxCell id="70" value="yes" style="text;html=1;align=center;verticalAlign=middle;resizable=0;points=[];autosize=1;strokeColor=none;fillColor=none;fontColor=#000000;" vertex="1" parent="1">
                    <mxGeometry x="380" y="1155" width="40" height="30" as="geometry"/>
                </mxCell>
                <mxCell id="71" value="setRef" style="rounded=0;whiteSpace=wrap;html=1;fontColor=#333333;fillColor=#f5f5f5;strokeColor=#666666;" vertex="1" parent="1">
                    <mxGeometry x="317.5" y="1210" width="120" height="60" as="geometry"/>
                </mxCell>
                <mxCell id="72" value="" style="endArrow=classic;html=1;fontColor=#000000;exitX=0.5;exitY=1;exitDx=0;exitDy=0;entryX=0.5;entryY=0;entryDx=0;entryDy=0;fillColor=#f5f5f5;strokeColor=#666666;" edge="1" parent="1" source="61" target="68">
                    <mxGeometry width="50" height="50" relative="1" as="geometry">
                        <mxPoint x="260" y="1080" as="sourcePoint"/>
                        <mxPoint x="310" y="1030" as="targetPoint"/>
                    </mxGeometry>
                </mxCell>
                <mxCell id="73" value="" style="endArrow=classic;html=1;fontColor=#000000;exitX=0.5;exitY=1;exitDx=0;exitDy=0;entryX=0.5;entryY=0;entryDx=0;entryDy=0;fillColor=#f5f5f5;strokeColor=#666666;" edge="1" parent="1" source="55" target="68">
                    <mxGeometry width="50" height="50" relative="1" as="geometry">
                        <mxPoint x="-172.5" y="1000" as="sourcePoint"/>
                        <mxPoint x="388" y="1080" as="targetPoint"/>
                    </mxGeometry>
                </mxCell>
                <mxCell id="74" value="" style="endArrow=classic;html=1;fontColor=#000000;exitX=0.5;exitY=1;exitDx=0;exitDy=0;entryX=0.5;entryY=0;entryDx=0;entryDy=0;fillColor=#f5f5f5;strokeColor=#666666;" edge="1" parent="1" source="52" target="68">
                    <mxGeometry width="50" height="50" relative="1" as="geometry">
                        <mxPoint x="-30" y="1000" as="sourcePoint"/>
                        <mxPoint x="388" y="1080" as="targetPoint"/>
                    </mxGeometry>
                </mxCell>
                <mxCell id="75" value="" style="endArrow=classic;html=1;fontColor=#000000;exitX=0.5;exitY=1;exitDx=0;exitDy=0;entryX=0.5;entryY=0;entryDx=0;entryDy=0;fillColor=#f5f5f5;strokeColor=#666666;" edge="1" parent="1" source="48" target="68">
                    <mxGeometry width="50" height="50" relative="1" as="geometry">
                        <mxPoint x="100" y="1000" as="sourcePoint"/>
                        <mxPoint x="388" y="1080" as="targetPoint"/>
                    </mxGeometry>
                </mxCell>
                <mxCell id="76" value="" style="endArrow=classic;html=1;fontColor=#000000;exitX=0.5;exitY=1;exitDx=0;exitDy=0;entryX=0.5;entryY=0;entryDx=0;entryDy=0;fillColor=#f5f5f5;strokeColor=#666666;" edge="1" parent="1" source="38" target="68">
                    <mxGeometry width="50" height="50" relative="1" as="geometry">
                        <mxPoint x="240" y="1000" as="sourcePoint"/>
                        <mxPoint x="388" y="1080" as="targetPoint"/>
                    </mxGeometry>
                </mxCell>
                <mxCell id="77" value="" style="endArrow=classic;html=1;fontColor=#000000;exitX=0.5;exitY=1;exitDx=0;exitDy=0;entryX=0.5;entryY=0;entryDx=0;entryDy=0;fillColor=#f5f5f5;strokeColor=#666666;" edge="1" parent="1" source="42" target="68">
                    <mxGeometry width="50" height="50" relative="1" as="geometry">
                        <mxPoint x="457.5" y="1000" as="sourcePoint"/>
                        <mxPoint x="388" y="1080" as="targetPoint"/>
                    </mxGeometry>
                </mxCell>
                <mxCell id="78" value="" style="endArrow=classic;html=1;fontColor=#000000;exitX=0.5;exitY=1;exitDx=0;exitDy=0;fillColor=#f5f5f5;strokeColor=#666666;" edge="1" parent="1" source="29">
                    <mxGeometry width="50" height="50" relative="1" as="geometry">
                        <mxPoint x="300" y="880" as="sourcePoint"/>
                        <mxPoint x="380" y="1070" as="targetPoint"/>
                    </mxGeometry>
                </mxCell>
                <mxCell id="79" value="" style="endArrow=classic;html=1;fontColor=#000000;exitX=0.412;exitY=1;exitDx=0;exitDy=0;fillColor=#f5f5f5;strokeColor=#666666;exitPerimeter=0;entryX=0.5;entryY=0;entryDx=0;entryDy=0;" edge="1" parent="1" source="27" target="68">
                    <mxGeometry width="50" height="50" relative="1" as="geometry">
                        <mxPoint x="650" y="880" as="sourcePoint"/>
                        <mxPoint x="390" y="1080" as="targetPoint"/>
                    </mxGeometry>
                </mxCell>
                <mxCell id="38" value="mountStaticNode(n2,&lt;br&gt;container,anchor)" style="rounded=0;whiteSpace=wrap;html=1;fontColor=#333333;fillColor=#f5f5f5;strokeColor=#666666;" vertex="1" parent="1">
                    <mxGeometry x="357.5" y="930" width="180" height="60" as="geometry"/>
                </mxCell>
            </root>
        </mxGraphModel>
    </diagram>
</mxfile>